<svg width="1600" height="1200" viewBox="0 0 1600 1200" fill="none" xmlns="http://www.w3.org/2000/svg">
<g clip-path="url(#clip0_9_375)">
<rect x="549.5" y="211" width="500" height="500" rx="80" fill="black"/>
<circle cx="612" cy="273.5" r="62.5" fill="white"/>
<circle cx="737" cy="273.5" r="62.5" fill="white"/>
<path d="M611 230.5V318" stroke="black" stroke-width="12.5"/>
<path d="M736.001 230.5V318" stroke="black" stroke-width="12.5"/>
<path d="M549.5 336H674.5L549.5 461V336Z" fill="#01A648"/>
<path d="M674.5 336H799.5L674.5 461V336Z" fill="#01A648"/>
<path d="M799.5 336H924.5L799.5 461V336Z" fill="#01A648"/>
<path d="M924.5 336H1049.5L924.5 461V336Z" fill="#01A648"/>
<path d="M1049.5 711L924.5 711L1049.5 586L1049.5 711Z" fill="#01A648"/>
<path d="M924.5 711L799.5 711L924.5 586L924.5 711Z" fill="#01A648"/>
<path d="M799.5 711L674.5 711L799.5 586L799.5 711Z" fill="#01A648"/>
<path d="M674.5 711L549.5 711L674.5 586L674.5 711Z" fill="#01A648"/>
<path d="M931.115 531.068C935.019 527.161 935.016 520.829 931.109 516.926C927.202 513.022 920.87 513.025 916.967 516.932L931.115 531.068ZM872.845 532.758L865.771 539.826L872.845 532.758ZM915.291 532.758L908.217 525.69L915.291 532.758ZM812.899 515.242L805.825 508.174L812.899 515.242ZM855.345 515.242L862.419 508.174L855.345 515.242ZM752.953 532.758L745.879 539.826L752.953 532.758ZM795.399 532.758L802.473 539.826L795.399 532.758ZM693.007 515.242L685.933 508.174L693.007 515.242ZM735.453 515.242L742.527 508.174L735.453 515.242ZM633.061 532.758L640.136 525.69L633.061 532.758ZM675.507 532.758L682.581 539.826L675.507 532.758ZM615.561 515.242L608.487 522.31L615.561 515.242ZM513.169 532.758L520.244 525.69L513.169 532.758ZM555.615 532.758L548.541 525.69L555.615 532.758ZM421.574 561.068L460.298 522.31L446.149 508.174L407.426 546.932L421.574 561.068ZM488.595 522.31L506.095 539.826L520.244 525.69L502.743 508.174L488.595 522.31ZM562.689 539.826L580.19 522.31L566.041 508.174L548.541 525.69L562.689 539.826ZM608.487 522.31L625.987 539.826L640.136 525.69L622.635 508.174L608.487 522.31ZM682.581 539.826L700.082 522.31L685.933 508.174L668.433 525.69L682.581 539.826ZM728.379 522.31L745.879 539.826L760.028 525.69L742.527 508.174L728.379 522.31ZM802.473 539.826L819.974 522.31L805.825 508.174L788.325 525.69L802.473 539.826ZM848.271 522.31L865.771 539.826L879.92 525.69L862.419 508.174L848.271 522.31ZM922.365 539.826L931.115 531.068L916.967 516.932L908.217 525.69L922.365 539.826ZM865.771 539.826C881.395 555.464 906.741 555.464 922.365 539.826L908.217 525.69C900.405 533.509 887.732 533.509 879.92 525.69L865.771 539.826ZM819.974 522.31C827.786 514.491 840.459 514.491 848.271 522.31L862.419 508.174C846.795 492.536 821.449 492.536 805.825 508.174L819.974 522.31ZM745.879 539.826C761.503 555.464 786.849 555.464 802.473 539.826L788.325 525.69C780.513 533.509 767.84 533.509 760.028 525.69L745.879 539.826ZM700.082 522.31C707.894 514.491 720.567 514.491 728.379 522.31L742.527 508.174C726.903 492.536 701.557 492.536 685.933 508.174L700.082 522.31ZM625.987 539.826C641.611 555.464 666.957 555.464 682.581 539.826L668.433 525.69C660.621 533.509 647.948 533.509 640.136 525.69L625.987 539.826ZM580.19 522.31C588.001 514.491 600.675 514.491 608.487 522.31L622.635 508.174C607.011 492.536 581.665 492.536 566.041 508.174L580.19 522.31ZM506.095 539.826C521.719 555.464 547.065 555.464 562.689 539.826L548.541 525.69C540.729 533.509 528.055 533.509 520.244 525.69L506.095 539.826ZM460.298 522.31C468.109 514.491 480.783 514.491 488.595 522.31L502.743 508.174C487.119 492.536 461.773 492.536 446.149 508.174L460.298 522.31Z" fill="#FF2E2E"/>
</g>
<rect x="549" y="210.5" width="501" height="501" rx="80.5" stroke="#808080"/>
<path d="M1145.68 1012.64C1139.85 1012.64 1134.63 1010.7 1130.01 1006.81C1125.4 1002.92 1121.69 997.457 1118.9 990.412C1116.23 983.245 1114.89 974.985 1114.89 965.632C1114.89 956.036 1116.29 947.594 1119.08 940.306C1121.88 933.018 1125.7 927.309 1130.56 923.18C1135.42 919.05 1140.82 916.985 1146.78 916.985C1153.94 916.985 1159.71 919.961 1164.08 925.913C1168.58 931.743 1170.83 941.278 1170.83 954.518C1170.83 958.526 1169.31 960.531 1166.27 960.531H1131.65C1129.22 960.531 1128.01 961.928 1128.01 964.721C1128.01 977.597 1129.89 987.253 1133.66 993.691C1137.42 1000.13 1142.22 1003.35 1148.05 1003.35C1152.67 1003.35 1156.43 1001.71 1159.35 998.428C1162.26 995.149 1164.63 989.622 1166.45 981.848C1166.82 980.512 1167.61 979.844 1168.82 979.844C1170.28 979.844 1170.83 981.059 1170.46 983.488C1168.52 994.299 1165.42 1001.89 1161.17 1006.26C1156.92 1010.51 1151.76 1012.64 1145.68 1012.64ZM1131.11 955.976H1149.51C1155.34 955.976 1158.25 952.939 1158.25 946.866C1158.25 938.97 1157.28 932.776 1155.34 928.281C1153.4 923.787 1150.48 921.54 1146.59 921.54C1141.86 921.54 1137.85 924.273 1134.57 929.739C1131.41 935.205 1129.35 942.979 1128.37 953.06C1128.13 955.004 1129.04 955.976 1131.11 955.976Z" fill="#808080"/>
<path d="M1074.31 1011C1072.85 1011 1072.12 1010.33 1072.12 1009C1072.12 1007.78 1072.79 1007.05 1074.13 1006.81L1076.68 1006.45C1079.23 1006.08 1081.11 1005.35 1082.33 1004.26C1083.54 1003.17 1084.15 1001.34 1084.15 998.793V894.392C1084.15 892.206 1083.78 890.687 1083.06 889.837C1082.45 888.987 1081.29 888.501 1079.59 888.379L1075.4 887.833C1074.07 887.59 1073.4 886.861 1073.4 885.646C1073.4 884.432 1074.07 883.703 1075.4 883.46C1078.8 882.731 1081.72 881.881 1084.15 880.909C1086.58 879.937 1088.58 878.966 1090.16 877.994C1092.1 876.779 1093.56 876.172 1094.53 876.172C1095.87 876.172 1096.54 877.144 1096.54 879.087V998.793C1096.54 1001.34 1096.9 1003.17 1097.63 1004.26C1098.48 1005.23 1100.18 1005.9 1102.73 1006.26L1106.92 1006.81C1108.26 1007.05 1108.93 1007.78 1108.93 1009C1108.93 1010.33 1108.2 1011 1106.74 1011H1074.31Z" fill="#808080"/>
<path d="M1050.87 900.769C1048.32 900.769 1046.13 899.858 1044.31 898.036C1042.61 896.214 1041.76 893.906 1041.76 891.112C1041.76 888.319 1042.61 886.071 1044.31 884.371C1046.13 882.549 1048.32 881.638 1050.87 881.638C1053.42 881.638 1055.55 882.549 1057.25 884.371C1058.95 886.071 1059.8 888.319 1059.8 891.112C1059.8 893.906 1058.95 896.214 1057.25 898.036C1055.55 899.858 1053.42 900.769 1050.87 900.769ZM1035.56 1011C1033.74 1011 1032.83 1010.33 1032.83 1009C1032.83 1007.9 1033.62 1007.17 1035.2 1006.81L1037.39 1006.45C1040.42 1005.96 1042.37 1005.23 1043.22 1004.26C1044.07 1003.17 1044.49 1001.34 1044.49 998.793V937.573C1044.49 935.387 1044.13 933.929 1043.4 933.201C1042.79 932.35 1041.64 931.804 1039.94 931.561L1036.11 931.014C1034.53 930.893 1033.74 930.225 1033.74 929.01C1033.74 928.038 1034.71 927.37 1036.66 927.006C1040.42 926.398 1043.46 925.427 1045.77 924.091C1048.07 922.754 1050.32 921.115 1052.51 919.171C1053.6 918.078 1054.51 917.531 1055.24 917.531C1056.33 917.531 1056.88 918.26 1056.88 919.718V998.793C1056.88 1001.34 1057.25 1003.17 1057.97 1004.26C1058.7 1005.35 1060.1 1006.02 1062.17 1006.26L1066.72 1006.81C1068.06 1007.05 1068.72 1007.72 1068.72 1008.81C1068.72 1010.27 1067.81 1011 1065.99 1011H1035.56Z" fill="#808080"/>
<path d="M1009.73 1012.64C1005.48 1012.64 1001.96 1011.18 999.162 1008.27C996.49 1005.23 995.154 1000.31 995.154 993.509V925.366C995.154 923.908 994.425 923.18 992.967 923.18H987.684C985.74 923.18 984.768 922.451 984.768 920.993C984.768 920.021 985.315 919.171 986.408 918.442C990.417 915.649 993.635 912.673 996.065 909.515C998.494 906.235 1000.62 901.801 1002.44 896.214C1003.29 893.663 1004.32 892.388 1005.54 892.388C1006.88 892.388 1007.54 893.359 1007.54 895.303V915.527C1007.54 917.228 1008.39 918.078 1010.09 918.078H1021.94C1023.88 918.078 1024.85 918.928 1024.85 920.629C1024.85 922.329 1023.88 923.18 1021.94 923.18H1010.09C1008.39 923.18 1007.54 924.03 1007.54 925.73V993.691C1007.54 996.363 1007.97 998.489 1008.82 1000.07C1009.67 1001.53 1011.25 1002.25 1013.56 1002.25C1016.11 1002.25 1018.17 1000.98 1019.75 998.428C1021.45 995.878 1022.54 991.748 1023.03 986.039C1023.27 984.338 1024.06 983.488 1025.4 983.488C1026.86 983.488 1027.59 984.399 1027.59 986.221C1027.22 995.574 1025.28 1002.32 1021.76 1006.45C1018.35 1010.58 1014.35 1012.64 1009.73 1012.64Z" fill="#808080"/>
<path d="M906.908 1048.35C905.086 1048.35 904.175 1047.68 904.175 1046.35C904.175 1045.01 904.964 1044.28 906.543 1044.16L909.094 1043.8C911.645 1043.43 913.285 1042.7 914.013 1041.61C914.864 1040.52 915.289 1038.69 915.289 1036.14V937.573C915.289 935.387 914.924 933.929 914.196 933.201C913.588 932.35 912.434 931.804 910.734 931.561L906.908 931.014C905.328 930.893 904.539 930.225 904.539 929.01C904.539 928.038 905.511 927.37 907.454 927.006C911.22 926.398 914.074 925.427 916.018 924.091C918.083 922.754 920.208 921.115 922.395 919.171C923.488 918.078 924.399 917.531 925.128 917.531C926.221 917.531 926.767 918.26 926.767 919.718V925.366C926.767 926.216 927.132 926.824 927.861 927.188C928.589 927.431 929.44 927.067 930.411 926.095L932.416 924.091C934.845 921.661 937.335 919.9 939.886 918.807C942.437 917.592 945.352 916.985 948.631 916.985C954.219 916.985 959.138 918.868 963.39 922.633C967.762 926.277 971.164 931.379 973.593 937.938C976.144 944.497 977.419 952.21 977.419 961.077C977.419 971.159 975.84 980.087 972.682 987.861C969.524 995.635 965.151 1001.71 959.563 1006.08C954.097 1010.45 947.781 1012.64 940.615 1012.64C936.971 1012.64 933.752 1011.97 930.958 1010.64C928.772 1009.66 927.678 1010.33 927.678 1012.64V1036.14C927.678 1038.69 928.043 1040.4 928.772 1041.25C929.622 1042.22 931.322 1042.89 933.873 1043.25L940.615 1044.16C941.951 1044.4 942.619 1045.07 942.619 1046.16C942.619 1047.62 941.708 1048.35 939.886 1048.35H906.908ZM941.161 1008.08C947.963 1008.08 953.429 1004.08 957.559 996.06C961.811 988.043 963.936 977.232 963.936 963.628C963.936 951.117 962.114 941.582 958.47 935.023C954.826 928.463 949.664 925.184 942.983 925.184C938.853 925.184 935.27 926.884 932.233 930.285C929.197 933.687 927.678 938.424 927.678 944.497V990.412C927.678 995.878 928.893 1000.19 931.322 1003.35C933.873 1006.51 937.153 1008.08 941.161 1008.08Z" fill="#808080"/>
<path d="M872.204 1012.64C866.374 1012.64 861.151 1010.7 856.535 1006.81C851.919 1002.92 848.214 997.457 845.421 990.412C842.748 983.245 841.412 974.985 841.412 965.632C841.412 956.036 842.809 947.594 845.603 940.306C848.397 933.018 852.223 927.309 857.081 923.18C861.94 919.05 867.345 916.985 873.297 916.985C880.464 916.985 886.234 919.961 890.606 925.913C895.101 931.743 897.348 941.278 897.348 954.518C897.348 958.526 895.829 960.531 892.793 960.531H858.175C855.745 960.531 854.531 961.928 854.531 964.721C854.531 977.597 856.413 987.253 860.179 993.691C863.944 1000.13 868.742 1003.35 874.573 1003.35C879.188 1003.35 882.954 1001.71 885.869 998.428C888.784 995.149 891.153 989.622 892.975 981.848C893.339 980.512 894.129 979.844 895.344 979.844C896.801 979.844 897.348 981.059 896.983 983.488C895.04 994.299 891.942 1001.89 887.691 1006.26C883.44 1010.51 878.277 1012.64 872.204 1012.64ZM857.628 955.976H876.03C881.861 955.976 884.776 952.939 884.776 946.866C884.776 938.97 883.804 932.776 881.861 928.281C879.917 923.787 877.002 921.54 873.115 921.54C868.378 921.54 864.369 924.273 861.09 929.739C857.932 935.205 855.867 942.979 854.895 953.06C854.652 955.004 855.563 955.976 857.628 955.976Z" fill="#808080"/>
<path d="M830.247 1012.64C819.679 1012.64 812.938 1005.72 810.023 991.869L805.832 971.645C804.496 965.086 802.977 960.106 801.277 956.704C799.698 953.303 797.451 950.996 794.536 949.781C791.742 948.566 787.855 947.959 782.875 947.959C781.174 947.959 779.838 948.445 778.866 949.416C777.895 950.267 777.409 951.36 777.409 952.696V998.246C777.409 1000.8 777.895 1002.56 778.866 1003.53C779.838 1004.38 782.024 1005.11 785.426 1005.72L792.167 1006.81C793.503 1007.05 794.171 1007.72 794.171 1008.81C794.171 1010.27 793.26 1011 791.438 1011H754.451C752.629 1011 751.718 1010.33 751.718 1009C751.718 1007.9 752.508 1007.17 754.087 1006.81L758.278 1006.08C760.828 1005.59 762.468 1004.93 763.197 1004.08C764.047 1003.23 764.472 1001.53 764.472 998.975V891.841C764.472 889.29 764.047 887.59 763.197 886.74C762.468 885.889 760.828 885.221 758.278 884.735L754.087 884.007C752.508 883.642 751.718 882.913 751.718 881.82C751.718 880.484 752.629 879.816 754.451 879.816H791.438C798.605 879.816 804.982 881.213 810.569 884.007C816.157 886.8 820.529 890.687 823.688 895.667C826.846 900.526 828.425 906.174 828.425 912.612C828.425 920.264 826.117 927.188 821.501 933.383C816.885 939.456 811.055 943.768 804.01 946.319C803.16 946.562 802.674 946.987 802.552 947.594C802.552 948.08 802.977 948.505 803.828 948.87C807.715 950.692 810.751 953.243 812.938 956.522C815.246 959.802 817.007 964.175 818.222 969.641L822.23 988.225C823.566 994.541 825.145 999.036 826.967 1001.71C828.789 1004.38 831.097 1005.72 833.891 1005.72C834.863 1005.72 835.713 1005.59 836.442 1005.35C837.292 1004.99 838.324 1004.38 839.539 1003.53C840.511 1002.92 841.422 1002.8 842.272 1003.17C843.122 1003.41 843.547 1004.02 843.547 1004.99C843.547 1007.05 842.211 1008.87 839.539 1010.45C836.867 1011.91 833.769 1012.64 830.247 1012.64ZM789.616 943.404C797.876 943.404 804.131 940.671 808.383 935.205C812.634 929.617 814.76 922.208 814.76 912.976C814.76 903.988 812.27 897.003 807.29 892.023C802.431 886.922 795.689 884.371 787.065 884.371C780.628 884.371 777.409 886.8 777.409 891.659V933.383C777.409 940.064 781.478 943.404 789.616 943.404Z" fill="#808080"/>
<path d="M687.513 1012.64C681.682 1012.64 676.459 1010.7 671.844 1006.81C667.228 1002.92 663.523 997.457 660.729 990.412C658.057 983.245 656.721 974.985 656.721 965.632C656.721 956.036 658.118 947.594 660.911 940.306C663.705 933.018 667.531 927.309 672.39 923.18C677.249 919.05 682.654 916.985 688.606 916.985C695.773 916.985 701.542 919.961 705.915 925.913C710.409 931.743 712.656 941.278 712.656 954.518C712.656 958.526 711.138 960.531 708.101 960.531H673.483C671.054 960.531 669.839 961.928 669.839 964.721C669.839 977.597 671.722 987.253 675.488 993.691C679.253 1000.13 684.051 1003.35 689.881 1003.35C694.497 1003.35 698.263 1001.71 701.178 998.428C704.093 995.149 706.462 989.622 708.284 981.848C708.648 980.512 709.438 979.844 710.652 979.844C712.11 979.844 712.656 981.059 712.292 983.488C710.349 994.299 707.251 1001.89 703 1006.26C698.748 1010.51 693.586 1012.64 687.513 1012.64ZM672.937 955.976H691.339C697.169 955.976 700.085 952.939 700.085 946.866C700.085 938.97 699.113 932.776 697.169 928.281C695.226 923.787 692.311 921.54 688.424 921.54C683.687 921.54 679.678 924.273 676.399 929.739C673.24 935.205 671.175 942.979 670.204 953.06C669.961 955.004 670.872 955.976 672.937 955.976Z" fill="#808080"/>
<path d="M616.14 1011C614.682 1011 613.954 1010.33 613.954 1009C613.954 1007.78 614.622 1007.05 615.958 1006.81L618.509 1006.45C621.059 1006.08 622.942 1005.35 624.157 1004.26C625.372 1003.17 625.979 1001.34 625.979 998.793V894.392C625.979 892.206 625.614 890.687 624.886 889.837C624.278 888.987 623.124 888.501 621.424 888.379L617.233 887.833C615.897 887.59 615.229 886.861 615.229 885.646C615.229 884.432 615.897 883.703 617.233 883.46C620.634 882.731 623.55 881.881 625.979 880.909C628.408 879.937 630.412 878.966 631.991 877.994C633.935 876.779 635.393 876.172 636.364 876.172C637.7 876.172 638.368 877.144 638.368 879.087V998.793C638.368 1001.34 638.733 1003.17 639.462 1004.26C640.312 1005.23 642.012 1005.9 644.563 1006.26L648.754 1006.81C650.09 1007.05 650.758 1007.78 650.758 1009C650.758 1010.33 650.029 1011 648.572 1011H616.14Z" fill="#808080"/>
<path d="M555.913 1048.35C552.633 1048.35 550.022 1047.2 548.078 1044.89C546.135 1042.7 545.163 1040.15 545.163 1037.24C545.163 1034.93 545.831 1032.99 547.167 1031.41C548.503 1029.83 550.325 1029.04 552.633 1029.04C554.577 1029.04 555.974 1029.46 556.824 1030.31C557.674 1031.16 558.281 1032.14 558.646 1033.23C559.01 1034.32 559.375 1035.29 559.739 1036.14C560.103 1036.99 560.832 1037.42 561.925 1037.42C563.262 1037.42 564.476 1036.45 565.569 1034.5C566.663 1032.68 568.181 1028.73 570.124 1022.66C571.339 1019.02 572.068 1015.86 572.311 1013.19C572.675 1010.51 572.615 1007.66 572.129 1004.62C571.764 1001.59 570.853 997.882 569.396 993.509L549.536 930.285C548.686 927.37 547.835 925.487 546.985 924.637C546.256 923.787 545.042 923.18 543.341 922.815L540.608 922.269C539.029 921.904 538.239 921.115 538.239 919.9C538.239 918.685 539.09 918.078 540.79 918.078H570.853C572.554 918.078 573.404 918.685 573.404 919.9C573.404 921.236 572.615 922.026 571.035 922.269L568.12 922.633C565.205 922.997 563.322 923.726 562.472 924.819C561.743 925.791 561.804 927.613 562.654 930.285L578.688 983.67C579.052 984.885 579.599 985.492 580.328 985.492C581.178 985.492 581.785 984.885 582.15 983.67L597.637 933.565C598.608 930.285 598.851 927.856 598.366 926.277C598.001 924.576 596.301 923.483 593.264 922.997L589.438 922.269C587.859 921.904 587.069 921.115 587.069 919.9C587.069 918.685 587.919 918.078 589.62 918.078H612.759C614.46 918.078 615.31 918.746 615.31 920.082C615.31 921.297 614.581 922.147 613.124 922.633L611.484 923.18C609.662 923.787 608.144 924.88 606.929 926.459C605.714 928.038 604.439 930.771 603.103 934.658L575.955 1019.38C573.283 1027.88 570.853 1034.2 568.667 1038.33C566.602 1042.46 564.598 1045.13 562.654 1046.35C560.711 1047.68 558.464 1048.35 555.913 1048.35Z" fill="#808080"/>
<path d="M523.981 1012.64C519.729 1012.64 516.207 1011.18 513.413 1008.27C510.741 1005.23 509.405 1000.31 509.405 993.509V925.366C509.405 923.908 508.676 923.18 507.218 923.18H501.935C499.991 923.18 499.019 922.451 499.019 920.993C499.019 920.021 499.566 919.171 500.659 918.442C504.668 915.649 507.886 912.673 510.316 909.515C512.745 906.235 514.871 901.801 516.693 896.214C517.543 893.663 518.575 892.388 519.79 892.388C521.126 892.388 521.794 893.359 521.794 895.303V915.527C521.794 917.228 522.645 918.078 524.345 918.078H536.188C538.132 918.078 539.103 918.928 539.103 920.629C539.103 922.329 538.132 923.18 536.188 923.18H524.345C522.645 923.18 521.794 924.03 521.794 925.73V993.691C521.794 996.363 522.219 998.489 523.07 1000.07C523.92 1001.53 525.499 1002.25 527.807 1002.25C530.358 1002.25 532.423 1000.98 534.002 998.428C535.702 995.878 536.796 991.748 537.281 986.039C537.524 984.338 538.314 983.488 539.65 983.488C541.108 983.488 541.836 984.399 541.836 986.221C541.472 995.574 539.529 1002.32 536.006 1006.45C532.605 1010.58 528.597 1012.64 523.981 1012.64Z" fill="#808080"/>
<path d="M456.525 1012.64C454.096 1012.64 451.363 1012.4 448.326 1011.91C445.411 1011.43 442.617 1010.82 439.945 1010.09C437.394 1009.36 435.39 1008.57 433.933 1007.72C433.082 1007.23 432.414 1006.75 431.928 1006.26C431.564 1005.66 431.382 1004.68 431.382 1003.35L430.471 974.742C430.471 972.313 431.26 971.098 432.839 971.098C434.175 971.098 435.086 972.191 435.572 974.378L437.212 981.302C441.342 998.671 449.055 1007.36 460.352 1007.36C466.425 1007.36 471.223 1005.35 474.745 1001.34C478.389 997.214 480.211 991.444 480.211 984.035C480.211 976.868 478.329 970.187 474.563 963.992C470.919 957.798 465.028 951.664 456.89 945.59C447.901 939.152 441.342 932.958 437.212 927.006C433.082 920.932 431.017 914.495 431.017 907.693C431.017 898.704 434.115 891.537 440.31 886.193C446.626 880.727 454.643 877.994 464.36 877.994C468.004 877.994 471.527 878.419 474.928 879.269C478.329 880.12 481.122 881.334 483.309 882.913C484.038 883.399 484.584 883.946 484.949 884.553C485.434 885.16 485.677 885.95 485.677 886.922L486.224 914.434C486.224 916.499 485.434 917.531 483.855 917.531C482.762 917.531 481.973 916.681 481.487 914.981L480.211 910.426C477.539 901.073 474.745 894.27 471.83 890.019C469.036 885.646 464.967 883.46 459.623 883.46C454.4 883.46 450.209 885.16 447.051 888.562C444.014 891.963 442.496 896.761 442.496 902.955C442.496 908.178 444.196 913.159 447.598 917.896C450.999 922.633 456.95 928.403 465.453 935.205C474.563 942.614 481.183 949.781 485.313 956.704C489.564 963.507 491.69 970.795 491.69 978.569C491.69 985.371 490.172 991.323 487.135 996.424C484.098 1001.53 479.908 1005.53 474.563 1008.45C469.34 1011.24 463.328 1012.64 456.525 1012.64Z" fill="#808080"/>
<defs>
<clipPath id="clip0_9_375">
<rect x="549.5" y="211" width="500" height="500" rx="80" fill="white"/>
</clipPath>
</defs>
</svg>
